<svg width="24" height="24" viewBox="0 0 24 24" fill="none" xmlns="http://www.w3.org/2000/svg">
  <path
    d="M12 2L4.5 5.2V10.8C4.5 15.45 7.44 19.56 12 21C16.56 19.56 19.5 15.45 19.5 10.8V5.2L12 2ZM9.29 8.76C9.68 9.15 9.68 9.78 9.29 10.17L7.96 11.5L9.29 12.83C9.68 13.22 9.68 13.85 9.29 14.24C8.9 14.63 8.27 14.63 7.88 14.24L5.84 12.2C5.45 11.81 5.45 11.18 5.84 10.79L7.88 8.76C8.27 8.37 8.9 8.37 9.29 8.76ZM12.99 6.95C13.56 6.95 14.02 7.41 14.02 7.98V15.92C14.02 16.49 13.56 16.95 12.99 16.95C12.42 16.95 11.96 16.49 11.96 15.92V7.98C11.96 7.41 12.42 6.95 12.99 6.95ZM16.12 8.76L18.16 10.79C18.55 11.18 18.55 11.81 18.16 12.2L16.12 14.24C15.73 14.63 15.1 14.63 14.71 14.24C14.32 13.85 14.32 13.22 14.71 12.83L16.04 11.5L14.71 10.17C14.32 9.78 14.32 9.15 14.71 8.76C15.1 8.37 15.73 8.37 16.12 8.76Z"
    fill="#FFFFFF"
  />
</svg>
